<?xml version="1.0" standalone="no"?>
<!DOCTYPE svg PUBLIC "-//W3C//DTD SVG 20010904//EN"
 "http://www.w3.org/TR/2001/REC-SVG-20010904/DTD/svg10.dtd">
<svg version="1.0" xmlns="http://www.w3.org/2000/svg"
 width="512.000000pt" height="512.000000pt" viewBox="0 0 512.000000 512.000000"
 preserveAspectRatio="xMidYMid meet">

<g transform="translate(0.000000,512.000000) scale(0.100000,-0.100000)"
fill="#000000" stroke="none">
<path d="M2223 5111 c-306 -49 -566 -257 -669 -536 -14 -38 -30 -80 -34 -91
-6 -16 -20 -23 -57 -28 -76 -11 -247 -72 -345 -123 -299 -154 -522 -417 -627
-742 -79 -241 -81 -515 -5 -762 l27 -88 -51 -69 c-107 -143 -185 -320 -223
-504 -26 -127 -28 -339 -5 -469 98 -542 532 -962 1078 -1043 58 -9 129 -16
157 -16 40 0 53 -4 57 -17 92 -298 295 -500 591 -589 75 -23 107 -27 218 -27
72 0 150 5 175 11 36 9 64 8 135 -5 390 -68 798 175 930 555 24 66 25 67 62
69 21 2 81 8 133 14 564 66 1015 489 1116 1048 23 130 21 342 -5 469 -38 184
-116 361 -223 504 l-51 69 27 88 c182 592 -88 1226 -640 1508 -103 53 -255
106 -337 118 -36 6 -51 13 -57 29 -4 11 -20 53 -34 91 -91 246 -295 431 -563
511 -74 22 -109 27 -213 27 -69 1 -150 -4 -180 -11 -38 -8 -67 -9 -95 -2 -57
14 -231 20 -292 11z m257 -442 l80 -20 85 22 c119 30 216 24 305 -19 83 -40
129 -78 172 -144 49 -75 67 -128 77 -223 10 -104 41 -163 105 -200 36 -21 64
-28 154 -35 231 -19 386 -86 546 -239 170 -163 258 -369 258 -606 0 -141 -20
-230 -82 -365 -44 -96 -52 -162 -26 -225 8 -18 48 -70 90 -114 167 -179 247
-396 233 -631 -22 -359 -272 -671 -617 -770 -98 -28 -265 -37 -377 -20 -101
15 -151 5 -208 -43 -50 -41 -74 -97 -75 -172 -1 -123 -44 -228 -127 -311 -112
-112 -258 -148 -427 -105 l-86 22 -80 -20 c-231 -60 -428 25 -522 225 -24 51
-31 83 -37 166 -8 116 -22 151 -77 196 -56 46 -107 57 -207 42 -137 -21 -292
-9 -409 30 -463 154 -703 654 -532 1109 38 100 97 193 180 282 42 44 82 96 90
114 26 63 18 129 -26 225 -62 135 -82 224 -82 365 0 237 88 443 258 606 160
153 315 220 546 239 90 7 118 14 154 35 64 37 95 96 105 200 19 189 120 324
289 385 72 25 170 25 270 -1z"/>
<path d="M2480 4464 c-45 -20 -87 -59 -111 -106 -18 -36 -19 -85 -19 -1798 0
-1713 1 -1762 19 -1798 83 -162 299 -162 382 0 18 36 19 85 19 1798 0 1713 -1
1762 -19 1798 -53 102 -172 149 -271 106z"/>
<path d="M1230 3621 c-104 -32 -160 -106 -160 -211 0 -58 23 -111 67 -152 52
-50 88 -58 260 -58 87 0 176 -5 197 -11 27 -7 64 -35 117 -85 43 -41 98 -84
121 -94 139 -63 297 39 298 191 0 70 -39 137 -132 224 -123 115 -231 172 -375
194 -80 12 -354 14 -393 2z"/>
<path d="M3475 3616 c-145 -28 -247 -85 -372 -211 -93 -92 -113 -130 -113
-208 0 -111 80 -197 189 -205 88 -6 122 10 221 103 60 58 99 87 126 94 22 6
110 11 197 11 172 0 208 8 260 58 44 41 67 94 67 152 0 88 -38 152 -115 193
-36 20 -57 22 -215 24 -113 1 -200 -3 -245 -11z"/>
<path d="M1830 2324 c-19 -8 -117 -96 -220 -198 -149 -147 -193 -185 -226
-194 -24 -7 -107 -12 -201 -12 -152 0 -161 -1 -212 -26 -133 -67 -157 -240
-47 -342 62 -57 112 -66 328 -59 192 6 242 16 358 73 66 33 99 61 279 238 129
127 210 216 222 241 24 51 24 119 0 170 -19 43 -78 100 -118 116 -37 14 -123
10 -163 -7z"/>
<path d="M3115 2324 c-106 -55 -153 -178 -106 -279 12 -25 93 -114 222 -241
180 -177 213 -205 279 -238 116 -57 166 -67 358 -73 224 -7 267 1 332 66 106
106 81 269 -51 335 -50 25 -60 26 -212 26 -94 0 -177 5 -201 12 -33 9 -77 47
-226 194 -114 113 -199 189 -222 198 -48 20 -134 20 -173 0z"/>
</g>
</svg>
